<?xml version="1.0" standalone="no"?>
<!DOCTYPE svg PUBLIC "-//W3C//DTD SVG 20010904//EN"
 "http://www.w3.org/TR/2001/REC-SVG-20010904/DTD/svg10.dtd">
<svg version="1.0" xmlns="http://www.w3.org/2000/svg"
 width="530.000000pt" height="530.000000pt" viewBox="0 0 530.000000 530.000000"
 preserveAspectRatio="xMidYMid meet">
<metadata>
Created by potrace 1.14, written by Peter Selinger 2001-2017
</metadata>
<g transform="translate(0.000000,530.000000) scale(0.100000,-0.100000)"
fill="#000000" stroke="none">
<path d="M2495 5068 c-44 -10 -122 -18 -173 -18 -88 -1 -95 -2 -118 -27 -13
-14 -24 -30 -24 -34 0 -5 53 -9 118 -9 156 -1 362 -16 374 -28 15 -15 -24 -32
-96 -40 -50 -7 -76 -16 -118 -46 -43 -29 -70 -39 -128 -48 -56 -8 -80 -17
-104 -39 -29 -26 -31 -31 -30 -101 0 -112 -4 -108 122 -108 60 0 112 -3 116
-7 4 -4 66 -6 139 -4 151 3 219 -9 348 -63 46 -19 134 -44 194 -55 308 -59
542 -174 797 -390 331 -282 551 -707 613 -1184 85 -656 -179 -1351 -655 -1727
-232 -183 -459 -293 -710 -345 -85 -18 -314 -37 -338 -28 -10 4 -31 21 -48 39
-40 42 -76 52 -120 30 -19 -9 -43 -16 -54 -16 -10 0 -30 -5 -43 -11 -18 -8
-45 -5 -122 15 -55 14 -102 31 -104 37 -10 31 -51 59 -85 59 -20 0 -59 9 -88
20 -92 35 -107 28 -136 -61 -12 -39 -26 -59 -51 -76 -45 -30 -103 -31 -131 -1
-20 22 -28 82 -11 92 10 7 21 -17 21 -45 0 -10 11 -26 25 -35 51 -33 125 14
125 79 0 34 -33 109 -56 128 -9 7 -46 14 -82 15 -37 1 -94 12 -126 23 -96 34
-140 25 -218 -45 -20 -18 -56 -38 -80 -45 -24 -6 -55 -16 -71 -21 -31 -12 -87
-71 -87 -93 0 -8 -23 -40 -51 -71 -46 -51 -51 -60 -45 -92 6 -37 46 -87 76
-95 22 -6 86 16 111 39 25 23 24 44 -6 88 -20 29 -21 36 -9 36 27 0 74 -59 74
-92 0 -61 -99 -117 -181 -104 -20 3 -60 18 -87 32 -44 23 -55 25 -85 15 -35
-12 -79 -53 -90 -84 -4 -10 0 -34 8 -54 9 -21 15 -67 15 -110 0 -128 39 -167
167 -167 79 1 101 12 129 66 22 42 17 74 -13 98 -22 17 -35 20 -72 15 l-46 -6
32 29 c44 42 122 59 192 42 52 -12 129 -59 213 -129 71 -59 140 -81 251 -81
112 0 146 14 54 23 -129 12 -234 71 -297 165 -30 46 -38 52 -70 52 -78 0 -125
61 -101 132 12 34 128 147 178 173 49 26 122 19 173 -15 35 -23 56 -30 94 -30
70 0 130 -32 161 -84 36 -62 41 -99 19 -148 -18 -39 -18 -41 1 -54 25 -19 82
-34 126 -34 63 0 134 29 210 85 110 81 186 101 284 74 43 -12 167 -80 160 -88
-3 -2 -42 13 -87 35 -70 33 -93 39 -148 39 -74 -1 -97 -11 -193 -84 -110 -83
-202 -103 -328 -72 -46 11 -104 24 -129 27 -82 13 -125 85 -84 142 12 18 24
22 52 20 46 -4 54 -26 10 -30 -28 -3 -34 -7 -36 -31 -5 -38 14 -57 53 -57 39
0 80 30 89 66 9 33 -27 109 -61 131 -14 9 -51 20 -84 25 -33 4 -84 21 -115 38
-60 32 -114 38 -150 17 -12 -7 -54 -42 -94 -79 -64 -60 -71 -70 -68 -100 3
-29 10 -36 54 -58 28 -14 80 -56 117 -93 109 -112 215 -144 442 -134 147 6
230 32 355 112 47 30 98 59 114 64 39 15 114 13 161 -5 93 -36 255 -63 255
-43 0 4 -20 15 -45 25 -56 21 -72 40 -27 31 18 -4 32 -5 32 -3 0 1 -36 31 -80
65 -44 34 -80 66 -80 71 0 13 -3 13 57 -9 32 -12 64 -34 88 -60 50 -55 150
-102 229 -108 54 -4 79 1 211 47 200 69 570 246 721 345 140 92 339 284 447
430 212 288 369 683 449 1134 18 100 22 165 22 311 1 206 -8 266 -105 710 -28
123 -48 234 -47 245 2 11 22 -34 46 -100 85 -242 107 -298 109 -279 4 24 -141
467 -153 471 -5 2 -18 -10 -27 -27 -10 -16 -21 -30 -26 -30 -11 0 -60 184 -51
193 4 5 21 2 38 -7 47 -24 55 -21 49 21 -8 50 -58 119 -177 248 -139 149 -164
181 -208 260 -44 82 -63 96 -90 72 -43 -39 -64 -30 -365 154 -471 289 -744
380 -1229 411 -177 11 -187 13 -190 33 -3 20 -3 20 -83 3z m-79 -4288 c35 -22
101 -59 146 -82 l83 -41 -59 -14 c-32 -7 -92 -32 -133 -54 -95 -52 -173 -63
-215 -29 -22 17 -28 30 -28 61 0 54 13 75 56 89 39 13 88 0 98 -26 8 -20 -8
-25 -43 -11 -60 22 -93 -33 -51 -86 47 -59 180 -7 180 71 0 39 -29 81 -70 102
-26 13 -40 27 -40 40 0 11 3 20 6 20 4 0 35 -18 70 -40z"/>
<path d="M2236 4088 c-3 -7 -7 -179 -11 -383 -7 -451 -10 -491 -46 -518 -15
-10 -48 -22 -73 -24 -39 -5 -51 -2 -71 17 -14 13 -25 32 -25 41 0 32 -46 122
-89 177 -23 29 -49 75 -58 103 -31 95 -81 120 -172 83 -61 -24 -181 -181 -248
-324 -104 -220 -119 -245 -220 -351 -34 -37 -67 -79 -73 -95 -18 -46 -2 -132
36 -194 19 -31 34 -62 34 -69 0 -8 9 -29 21 -47 24 -40 55 -50 185 -60 130 -9
166 14 260 166 90 147 171 222 273 256 50 16 57 16 153 -2 56 -11 107 -25 115
-32 16 -16 18 -174 3 -203 -12 -22 -63 -49 -140 -74 -67 -22 -185 -87 -223
-123 -36 -35 -70 -107 -63 -135 3 -12 25 -42 50 -66 39 -38 53 -45 103 -52 70
-9 103 -40 103 -95 0 -54 -55 -104 -190 -174 -147 -76 -118 -77 95 -5 90 30
174 55 188 55 46 0 60 -49 23 -79 -25 -21 -498 -142 -591 -152 -49 -5 -165
-11 -256 -13 -91 -1 -171 -6 -177 -10 -7 -4 -19 -22 -26 -41 -34 -80 44 -211
151 -251 40 -16 54 -16 122 -5 42 7 135 32 206 57 196 66 501 139 802 190 199
34 429 37 623 9 69 -10 204 -20 300 -22 193 -4 222 2 263 59 30 40 16 71 -56
125 -34 26 -84 69 -110 96 l-48 48 -62 -6 c-39 -4 -86 -1 -127 8 -52 11 -115
12 -320 6 -140 -5 -263 -6 -272 -3 -21 6 -25 18 -38 113 -13 93 -2 132 48 166
19 13 75 67 124 120 82 89 88 98 88 138 0 67 -44 118 -119 137 -24 6 -65 22
-92 35 -39 20 -49 31 -54 57 -9 48 19 165 45 193 12 13 65 40 116 60 76 30
287 148 426 239 40 26 51 61 32 101 -8 18 -23 40 -32 48 -9 8 -86 35 -170 61
l-153 47 -50 -25 c-59 -31 -69 -32 -103 -5 -26 20 -27 25 -23 88 2 36 10 95
17 131 19 95 9 131 -54 193 -133 130 -226 207 -254 208 -39 1 -64 5 -90 13
-15 5 -24 3 -26 -6z"/>
<path d="M495 3538 c-2 -7 -19 -60 -39 -118 -81 -241 -125 -474 -133 -705 -9
-251 24 -479 107 -749 22 -72 37 -132 35 -134 -8 -9 -86 170 -126 289 -119
353 -131 761 -34 1128 14 52 23 96 20 99 -12 12 -66 -188 -92 -338 -23 -136
-24 -523 0 -680 45 -303 182 -640 375 -920 108 -158 227 -312 279 -361 74 -71
288 -229 309 -229 12 0 33 23 57 61 44 69 97 108 157 116 62 9 49 33 -25 50
-49 11 -88 33 -215 121 -143 99 -162 116 -243 217 -244 302 -408 610 -483 903
-106 419 -92 794 44 1141 23 57 39 108 36 113 -8 12 -24 10 -29 -4z"/>
<path d="M5021 3139 c-1 -14 6 -77 14 -140 29 -220 34 -335 24 -572 -5 -128
-11 -243 -14 -257 -12 -56 14 9 36 90 14 54 23 116 23 170 1 128 -55 665 -74
714 -8 20 -9 19 -9 -5z"/>
<path d="M2558 415 c-16 -9 -28 -18 -28 -20 0 -3 48 -5 107 -5 101 0 106 1 90
17 -23 24 -132 29 -169 8z"/>
</g>
</svg>
