<?xml version="1.0" standalone="no"?>
<!DOCTYPE svg PUBLIC "-//W3C//DTD SVG 20010904//EN"
 "http://www.w3.org/TR/2001/REC-SVG-20010904/DTD/svg10.dtd">
<svg version="1.0" xmlns="http://www.w3.org/2000/svg"
 width="1920.000000pt" height="1920.000000pt" viewBox="0 0 1920.000000 1920.000000"
 preserveAspectRatio="xMidYMid meet">
<metadata>
Created by potrace 1.14, written by Peter Selinger 2001-2017
</metadata>
<g transform="translate(0.000000,1920.000000) scale(0.100000,-0.100000)"
fill="#000000" stroke="none">
<path d="M9238 19195 c-1 -1 -66 -6 -143 -9 -77 -3 -165 -8 -195 -11 -30 -3
-80 -7 -110 -10 -226 -20 -269 -24 -305 -30 -16 -2 -52 -7 -80 -10 -75 -8
-120 -14 -230 -31 -55 -8 -109 -17 -120 -18 -23 -4 -101 -17 -130 -22 -11 -2
-45 -8 -75 -14 -63 -11 -85 -16 -155 -30 -27 -5 -61 -12 -75 -14 -14 -3 -36
-8 -50 -11 -14 -3 -47 -10 -73 -15 -40 -8 -179 -43 -492 -125 -212 -55 -835
-267 -1000 -340 -16 -8 -104 -45 -195 -84 -150 -63 -479 -216 -540 -251 -14
-8 -27 -15 -30 -15 -3 -1 -36 -17 -75 -38 -38 -20 -90 -46 -115 -59 -25 -13
-46 -26 -48 -30 -2 -5 -7 -8 -12 -8 -5 0 -75 -39 -157 -86 -81 -47 -162 -94
-179 -104 -154 -89 -549 -352 -729 -485 -124 -92 -346 -263 -355 -274 -3 -4
-25 -22 -50 -41 -25 -19 -47 -37 -50 -40 -3 -3 -34 -30 -70 -60 -378 -318
-827 -767 -1140 -1139 -25 -30 -50 -59 -55 -65 -9 -9 -233 -292 -263 -331 -38
-51 -125 -170 -153 -210 -19 -27 -37 -52 -40 -55 -9 -8 -239 -354 -298 -448
-63 -101 -172 -284 -204 -343 -58 -107 -90 -165 -97 -174 -4 -5 -52 -98 -107
-205 -196 -387 -331 -696 -473 -1085 -52 -143 -136 -398 -170 -515 -12 -41
-26 -86 -31 -100 -7 -22 -76 -280 -94 -355 -4 -16 -9 -37 -11 -45 -28 -109
-91 -416 -129 -625 -11 -62 -55 -352 -60 -400 -5 -47 -9 -79 -20 -165 -8 -58
-15 -131 -20 -210 -3 -41 -8 -86 -10 -100 -26 -164 -27 -1277 -1 -1440 2 -14
7 -68 11 -120 8 -129 13 -180 30 -320 3 -19 8 -60 11 -90 3 -30 7 -62 8 -70 2
-8 6 -40 10 -70 12 -86 14 -98 46 -289 12 -69 23 -127 24 -130 2 -3 7 -28 11
-56 18 -138 152 -688 226 -930 67 -219 157 -492 179 -540 5 -11 17 -45 28 -75
23 -63 88 -231 107 -275 7 -16 35 -79 60 -140 100 -233 241 -527 340 -710 187
-345 316 -560 501 -837 304 -454 603 -831 967 -1222 66 -70 372 -379 423 -426
27 -25 96 -88 154 -140 57 -52 111 -101 118 -108 23 -21 242 -203 297 -247 28
-22 52 -42 55 -46 3 -3 84 -65 180 -137 96 -72 180 -136 187 -142 31 -26 394
-268 518 -345 446 -278 845 -486 1336 -695 346 -148 650 -256 1069 -381 201
-60 612 -160 795 -194 44 -8 91 -17 105 -20 26 -5 43 -8 142 -25 32 -6 70 -12
85 -15 61 -11 150 -25 188 -29 22 -3 56 -8 75 -10 19 -3 60 -8 90 -12 30 -3
66 -7 80 -9 14 -2 54 -6 90 -10 36 -3 84 -8 107 -11 145 -15 171 -17 423 -31
175 -10 825 -10 1005 0 138 8 174 10 309 22 130 12 161 15 201 20 70 8 129 15
175 19 25 3 74 9 110 15 36 5 92 13 125 17 33 3 63 8 66 10 4 2 31 6 60 10 30
3 57 8 60 10 4 2 31 6 60 10 30 3 57 8 60 10 4 2 24 6 45 10 22 3 82 15 134
26 52 11 104 22 115 24 107 16 584 141 790 206 179 57 372 120 390 128 11 4
90 34 175 65 634 232 1331 590 1933 993 60 39 112 72 117 72 5 0 10 3 12 8 2
4 57 45 123 91 66 46 122 87 125 90 3 3 41 33 85 65 76 57 315 244 325 255 3
3 30 26 60 51 92 75 112 93 220 190 179 161 221 201 395 376 251 252 365 375
556 599 150 176 385 478 489 630 19 28 37 52 40 55 11 10 228 337 266 400 21
36 41 67 44 70 3 3 12 16 19 30 8 14 58 99 111 190 53 91 100 172 103 180 4 8
37 69 72 135 212 392 417 856 561 1265 25 69 48 134 53 145 9 20 60 183 119
380 26 84 84 298 98 354 2 9 10 41 17 71 18 68 47 191 53 226 3 14 11 54 19
88 18 79 17 75 81 436 2 14 6 36 8 50 6 31 35 242 41 290 2 19 9 76 14 125 6
50 13 115 16 145 4 50 7 81 20 235 12 150 20 381 19 625 0 259 -10 616 -18
670 -3 14 -7 77 -11 140 -4 63 -8 126 -9 140 -2 14 -7 59 -11 100 -4 41 -8 82
-10 90 -1 8 -6 46 -9 83 -4 37 -9 76 -11 85 -1 9 -6 44 -9 77 -4 33 -9 67 -11
75 -2 8 -6 35 -9 60 -3 25 -8 54 -10 65 -2 11 -9 54 -15 95 -7 41 -16 95 -21
120 -6 25 -12 56 -14 70 -3 14 -10 50 -16 80 -6 30 -13 66 -15 81 -22 125
-131 557 -187 744 -52 176 -100 329 -108 350 -5 11 -27 74 -50 140 -47 132
-116 319 -130 350 -5 11 -46 108 -91 215 -381 909 -961 1830 -1628 2585 -171
194 -500 532 -657 675 -259 238 -332 301 -529 458 -77 62 -146 117 -153 123
-16 13 -279 209 -308 229 -55 38 -443 297 -469 313 -17 9 -101 60 -187 112
-87 52 -160 95 -162 95 -3 0 -36 19 -73 42 -74 45 -489 256 -648 330 -55 25
-176 78 -270 118 -93 39 -183 78 -200 85 -269 117 -1117 380 -1420 439 -11 2
-97 20 -191 40 -160 33 -412 77 -514 91 -25 3 -56 8 -70 10 -14 3 -45 7 -70
10 -25 3 -63 7 -85 10 -100 12 -216 25 -280 30 -38 4 -81 8 -95 10 -14 2 -72
7 -130 10 -58 3 -127 8 -155 11 -56 5 -891 14 -897 9z"/>
</g>
</svg>
